{"asset":{"version":"2.0","generator":"babylon.js glTF exporter for 3dsmax 2018 v20200508.2"},"scene":0,"scenes":[{"nodes":[0,1]}],"nodes":[{"mesh":0,"rotation":[0.0,0.7071068,0.0,0.7071067],"scale":[0.0230630022,0.0230630022,0.0230630022],"name":"对象001"},{"name":"Default light"}],"meshes":[{"primitives":[{"attributes":{"POSITION":1,"NORMAL":2,"TEXCOORD_0":3},"indices":0,"material":0}],"name":"对象001"}],"accessors":[{"bufferView":0,"componentType":5123,"count":24,"type":"SCALAR","name":"accessorIndices"},{"bufferView":1,"componentType":5126,"count":24,"max":[0.5402118,-0.152138561,1.06738281],"min":[-0.5402118,-2.02496839,-1.06738651],"type":"VEC3","name":"accessorPositions"},{"bufferView":1,"byteOffset":288,"componentType":5126,"count":24,"type":"VEC3","name":"accessorNormals"},{"bufferView":2,"componentType":5126,"count":24,"type":"VEC2","name":"accessorUVs"}],"bufferViews":[{"buffer":0,"byteLength":48,"name":"bufferViewScalar"},{"buffer":0,"byteOffset":48,"byteLength":576,"byteStride":12,"name":"bufferViewFloatVec3"},{"buffer":0,"byteOffset":624,"byteLength":192,"byteStride":8,"name":"bufferViewFloatVec2"}],"buffers":[{"uri":"Volumetriclight.bin","byteLength":816}],"materials":[{"pbrMetallicRoughness":{"baseColorTexture":{"index":0},"metallicFactor":0.0,"roughnessFactor":0.450053632},"name":"01 - Default"}],"textures":[{"sampler":0,"source":0,"name":"light.png"}],"images":[{"uri":"./light.png"}],"samplers":[{"magFilter":9729,"minFilter":9987}]}